<?xml version="1.0" encoding="UTF-8"?>
<svg version="1.1" xmlns="http://www.w3.org/2000/svg" width="500" height="500">
<path d="M0 0 C0.67692434 -0.00235223 1.35384869 -0.00470446 2.05128589 -0.00712797 C4.32405033 -0.01379537 6.5967573 -0.01336043 8.86953068 -0.01294994 C10.51378928 -0.01624999 12.15804708 -0.01997585 13.80230385 -0.02409142 C18.32460926 -0.03410375 22.8469014 -0.03782699 27.36921632 -0.04048073 C32.24538478 -0.04438611 37.12154275 -0.05396434 41.99770451 -0.0626936 C53.77628626 -0.08245229 65.55486886 -0.09252385 77.33346304 -0.10142139 C82.88196547 -0.1058056 88.43046695 -0.1111721 93.97896862 -0.11641026 C112.42690266 -0.13342259 130.87483611 -0.14791609 149.32277679 -0.155159 C154.10968813 -0.15706885 158.89659946 -0.15898919 163.68351078 -0.16094494 C165.46812986 -0.16167055 165.46812986 -0.16167055 167.28880186 -0.16241082 C186.55577119 -0.17070859 205.82267838 -0.19604123 225.08962058 -0.22852562 C244.87636486 -0.26161402 264.66307758 -0.27960941 284.44984967 -0.28280324 C295.55699076 -0.28496677 306.66404126 -0.29369246 317.77115536 -0.31926441 C327.23192779 -0.34099579 336.69258762 -0.34900984 346.15338217 -0.33929763 C350.97739912 -0.33475991 355.80118386 -0.33660843 360.6251688 -0.35605907 C365.04896153 -0.37374142 369.47235355 -0.37265211 373.89615083 -0.35716178 C375.48911159 -0.35479338 377.08210046 -0.35906909 378.67501836 -0.37099043 C396.77247211 -0.4979465 412.52807046 4.08124488 426.01676273 16.78656483 C436.33307119 27.99832139 443.28820379 41.49670407 443.31114006 56.95730209 C443.31349229 57.63422644 443.31584452 58.31115078 443.31826803 59.00858799 C443.32493543 61.28135242 443.32450049 63.55405939 443.32409 65.82683277 C443.32739005 67.47109138 443.33111591 69.11534918 443.33523148 70.75960594 C443.34524381 75.28191136 443.34896705 79.80420349 443.35162079 84.32651842 C443.35552617 89.20268687 443.3651044 94.07884484 443.37383366 98.9550066 C443.39359236 110.73358835 443.40366391 122.51217096 443.41256145 134.29076514 C443.41694567 139.83926756 443.42231216 145.38776904 443.42755032 150.93627071 C443.44456265 169.38420476 443.45905615 187.83213821 443.46629906 206.28007889 C443.46820891 211.06699022 443.47012925 215.85390156 443.472085 220.64081287 C443.47256874 221.83055893 443.47305248 223.02030498 443.47355088 224.24610395 C443.48184865 243.51307328 443.50718129 262.77998047 443.53966568 282.04692268 C443.57275408 301.83366695 443.59074947 321.62037967 443.5939433 341.40715176 C443.59610683 352.51429285 443.60483253 363.62134335 443.63040447 374.72845745 C443.65213585 384.18922988 443.6601499 393.64988971 443.65043769 403.11068427 C443.64589997 407.93470121 443.64774849 412.75848596 443.66719913 417.58247089 C443.68488148 422.00626363 443.68379217 426.42965564 443.66830184 430.85345293 C443.66593344 432.44641368 443.67020915 434.03940255 443.68213049 435.63232046 C443.80908656 453.72977421 439.22989518 469.48537255 426.52457523 482.97406483 C415.31281867 493.29037328 401.81443599 500.24550588 386.35383797 500.26844215 C385.67691362 500.27079438 384.99998928 500.27314661 384.30255207 500.27557012 C382.02978764 500.28223753 379.75708067 500.28180258 377.48430729 500.2813921 C375.84004868 500.28469214 374.19579088 500.288418 372.55153412 500.29253358 C368.02922871 500.30254591 363.50693657 500.30626914 358.98462164 500.30892289 C354.10845319 500.31282826 349.23229522 500.3224065 344.35613346 500.33113575 C332.57755171 500.35089445 320.79896911 500.36096601 309.02037492 500.36986354 C303.4718725 500.37424776 297.92337102 500.37961425 292.37486935 500.38485241 C273.9269353 500.40186474 255.47900185 500.41635824 237.03106117 500.42360115 C232.24414984 500.42551101 227.4572385 500.42743135 222.67032719 500.42938709 C220.8857081 500.4301127 220.8857081 500.4301127 219.06503611 500.43085297 C199.79806678 500.43915074 180.53115959 500.46448338 161.26421738 500.49696777 C141.47747311 500.53005618 121.69076039 500.54805156 101.9039883 500.55124539 C90.79684721 500.55340892 79.68979671 500.56213462 68.58268261 500.58770657 C59.12191018 500.60943794 49.66125035 500.617452 40.20045579 500.60773978 C35.37643885 500.60320206 30.5526541 500.60505059 25.72866917 500.62450123 C21.30487643 500.64218358 16.88148442 500.64109426 12.45768713 500.62560394 C10.86472638 500.62323553 9.27173751 500.62751124 7.6788196 500.63943259 C-10.41863414 500.76638865 -26.17423249 496.18719727 -39.66292477 483.48187733 C-49.97923322 472.27012076 -56.93436582 458.77173809 -56.95730209 443.31114006 C-56.95965432 442.63421572 -56.96200655 441.95729137 -56.96443006 441.25985417 C-56.97109747 438.98708973 -56.97066252 436.71438276 -56.97025204 434.44160938 C-56.97355208 432.79735078 -56.97727794 431.15309298 -56.98139352 429.50883621 C-56.99140585 424.9865308 -56.99512908 420.46423866 -56.99778283 415.94192374 C-57.0016882 411.06575528 -57.01126644 406.18959731 -57.01999569 401.31343555 C-57.03975439 389.5348538 -57.04982595 377.7562712 -57.05872348 365.97767702 C-57.0631077 360.42917459 -57.06847419 354.88067311 -57.07371235 349.33217144 C-57.09072468 330.8842374 -57.10521818 312.43630395 -57.11246109 293.98836327 C-57.11437095 289.20145193 -57.11629128 284.4145406 -57.11824703 279.62762928 C-57.11873077 278.43788323 -57.11921451 277.24813717 -57.11971291 276.0223382 C-57.12801068 256.75536887 -57.15334332 237.48846168 -57.18582771 218.22151948 C-57.21891612 198.4347752 -57.2369115 178.64806248 -57.24010533 158.8612904 C-57.24226886 147.7541493 -57.25099456 136.6470988 -57.27656651 125.5399847 C-57.29829788 116.07921227 -57.30631194 106.61855244 -57.29659972 97.15775789 C-57.292062 92.33374094 -57.29391053 87.5099562 -57.31336117 82.68597126 C-57.33104352 78.26217853 -57.3299542 73.83878652 -57.31446388 69.41498923 C-57.31209547 67.82202847 -57.31637118 66.2290396 -57.32829253 64.6361217 C-57.45524859 46.53866795 -52.87605721 30.7830696 -40.17073727 17.29437733 C-28.9589807 6.97806887 -15.46059803 0.02293627 0 0 Z " fill="#00535F" transform="translate(56.82308101654053,-0.13422107696533203)"/>
<path d="M0 0 C17.82 0 35.64 0 54 0 C55.33726513 4.68042796 56.42657807 8.91763931 57.22998047 13.66040039 C57.562687 15.60672112 57.562687 15.60672112 57.90211487 17.59236145 C58.14053323 19.01078283 58.37888873 20.42921477 58.6171875 21.84765625 C58.87289205 23.3518006 59.12895909 24.85588337 59.38536072 26.35990906 C59.93352962 29.57977137 60.47928301 32.80003003 61.02310181 36.02062988 C61.87970362 41.09349939 62.74149271 46.16547858 63.60424805 51.23730469 C64.49737888 56.48910492 65.39016886 61.74096179 66.28111267 66.99313354 C69.17124485 84.02953252 72.08961594 101.06104652 75.01300049 118.09176636 C75.80654208 122.71481706 76.59941217 127.33798274 77.39208984 131.96118164 C77.51566518 132.68191455 77.63924051 133.40264746 77.76656055 134.14522076 C78.00635271 135.54377725 78.24614366 136.94233396 78.4859333 138.34089088 C79.32377648 143.2272913 80.16190112 148.11364344 81 153 C83.05565523 147.68434751 84.84454295 142.38814091 86.3815918 136.90234375 C86.60046303 136.13179122 86.81933426 135.36123869 87.04483795 134.56733608 C87.76615096 132.02494783 88.48268451 129.4812388 89.19921875 126.9375 C89.71203829 125.12654541 90.22517294 123.31568004 90.73860168 121.50489807 C91.82762672 117.66184839 92.91462387 113.81823341 94 109.97415161 C95.69027163 103.98813565 97.38564067 98.00357147 99.08203125 92.01928711 C101.3364894 84.06516482 103.58956813 76.11065378 105.84130859 68.15576172 C109.71134847 54.4849636 113.58598276 40.81549193 117.47866821 27.15112305 C118.48538397 23.6138559 119.48821175 20.07550099 120.4909668 16.53710938 C121.08748773 14.44263993 121.68423274 12.34823428 122.28125 10.25390625 C122.5467012 9.31349991 122.8121524 8.37309357 123.08564758 7.40419006 C123.32615341 6.56383713 123.56665924 5.72348419 123.81445312 4.85766602 C124.02106567 4.13047867 124.22767822 3.40329132 124.44055176 2.65406799 C125 1 125 1 126 0 C127.50418739 -0.09311889 129.01271356 -0.11746028 130.51977539 -0.11352539 C131.96115623 -0.11341209 131.96115623 -0.11341209 133.43165588 -0.11329651 C134.99882607 -0.10555458 134.99882607 -0.10555458 136.59765625 -0.09765625 C137.66165146 -0.0962413 138.72564667 -0.09482635 139.82188416 -0.09336853 C143.23545083 -0.08775064 146.648953 -0.07519511 150.0625 -0.0625 C152.37044176 -0.05748731 154.67838455 -0.052924 156.98632812 -0.04882812 C162.65757426 -0.0377754 168.32878253 -0.02101987 174 0 C177.20301612 6.7381783 179.0488818 13.8294645 181.03515625 21 C181.42983508 22.41062008 181.82498362 23.82110881 182.2205658 25.23147583 C183.06543187 28.24671251 183.90749014 31.26271312 184.74731445 34.27935791 C186.74986468 41.47140908 188.76765918 48.6591906 190.78367233 55.84747696 C191.47642265 58.31812009 192.16861863 60.78891804 192.86074829 63.25973511 C197.33269917 79.21788027 201.86478304 95.15863747 206.41953659 111.09332275 C206.99568694 113.1099039 207.57110402 115.1266928 208.14627075 117.14355469 C209.22079575 120.91129902 210.2976786 124.67836672 211.375 128.4453125 C211.68461166 129.5309549 211.99422333 130.61659729 212.31321716 131.73513794 C214.44858339 139.18636215 216.69697624 146.59894131 219 154 C219.13352371 153.16012039 219.26704742 152.32024078 219.40461731 151.45491028 C222.47902639 132.13073989 225.7062823 112.83624129 229.04003906 93.55517578 C230.17247712 87.00467212 231.3009706 80.45348945 232.4296875 73.90234375 C233.72245348 66.39990662 235.01535761 58.8974935 236.30932617 51.39526367 C236.5122377 50.21854599 236.71514923 49.04182831 236.92420959 47.82945251 C237.32939544 45.48143095 237.73510082 43.13349897 238.14134216 40.78565979 C239.11611862 35.14809152 240.08502986 29.50966843 241.03603077 23.8680439 C241.49332187 21.15713358 241.95351642 18.44671965 242.41393852 15.73633957 C242.74064577 13.80563283 243.06311574 11.87421061 243.38551331 9.94277954 C243.6808622 8.20645767 243.6808622 8.20645767 243.98217773 6.43505859 C244.15498764 5.40754486 244.32779755 4.38003113 244.50584412 3.32138062 C245 1 245 1 246 0 C247.68801985 -0.09353163 249.37995207 -0.11744791 251.07055664 -0.11352539 C252.15160172 -0.11344986 253.23264679 -0.11337433 254.34645081 -0.11329651 C256.110485 -0.10555458 256.110485 -0.10555458 257.91015625 -0.09765625 C259.10732773 -0.0962413 260.30449921 -0.09482635 261.53794861 -0.09336853 C265.37949066 -0.08774979 269.22097543 -0.07519411 273.0625 -0.0625 C275.65950437 -0.05748741 278.25650965 -0.05292409 280.85351562 -0.04882812 C287.23569679 -0.03777427 293.6178443 -0.02101792 300 0 C299.28556838 6.3754944 298.1801264 12.61990005 296.94873047 18.91430664 C296.63749929 20.52222863 296.63749929 20.52222863 296.31998062 22.1626339 C295.62986509 25.72479443 294.93601334 29.2862167 294.2421875 32.84765625 C293.74925345 35.38830332 293.25657307 37.92899961 292.76412964 40.46974182 C291.71760431 45.86775804 290.66934747 51.2654355 289.61999512 56.66290283 C288.0206 64.89026904 286.42626862 73.11861194 284.83300781 81.34716797 C284.30123124 84.09329664 283.76942643 86.83941984 283.23760986 89.58554077 C283.10553249 90.26755369 282.97345512 90.94956661 282.8373754 91.65224659 C281.35617959 99.30026984 279.87348366 106.94800214 278.390625 114.59570312 C278.25656329 115.28712489 278.12250157 115.97854665 277.98437738 116.69092059 C277.16865129 120.89799696 276.35288912 125.10506634 275.537117 129.31213379 C273.60748817 139.26359875 271.67799755 149.21509049 269.74889266 159.16665703 C268.86481359 163.72723229 267.9804316 168.28774874 267.09597778 172.84825134 C265.95364725 178.73922529 264.81315239 184.63055254 263.67350006 190.52204514 C262.97641717 194.12178173 262.27699975 197.72106065 261.57757568 201.32034302 C261.12308203 203.66675156 260.66867202 206.0131763 260.21435547 208.35961914 C260.005674 209.43047729 259.79699253 210.50133543 259.58198738 211.60464382 C259.38847128 212.60624066 259.19495518 213.60783751 258.99557495 214.63978577 C258.82679274 215.50937455 258.65801052 216.37896334 258.48411369 217.2749033 C257.91053888 220.50358047 257.46375305 223.75372868 257 227 C237.2 227 217.4 227 197 227 C194.463125 218.399375 191.92625 209.79875 189.3125 200.9375 C184.0064376 182.95121747 178.69603008 164.96623548 173.375 146.984375 C172.90520724 145.39665225 172.43541455 143.80892947 171.96562195 142.22120667 C169.9179808 135.30122792 167.8699936 128.38135205 165.8209219 121.46179676 C164.96845882 118.58282163 164.11630184 115.70375599 163.26428795 112.8246479 C162.85415467 111.43879349 162.44393989 110.05296319 162.03363991 108.66715813 C159.96312813 101.67272146 157.90155395 94.67589904 155.86865234 87.67041016 C155.37917366 85.98387077 155.37917366 85.98387077 154.87980652 84.26325989 C154.27695699 82.18216525 153.6758619 80.10056126 153.07685852 78.01835632 C152.81519394 77.11422501 152.55352936 76.21009369 152.28393555 75.27856445 C151.9455793 74.10291679 151.9455793 74.10291679 151.60038757 72.90351868 C151.03666776 70.94212181 151.03666776 70.94212181 150 69 C145.85388473 82.83586015 141.71080919 96.67262881 137.56964493 110.50997162 C136.56755192 113.85812076 135.56520574 117.20619404 134.56283569 120.55426025 C124.88334115 152.87910355 124.88334115 152.87910355 115.359375 185.25 C115.15577299 185.94796818 114.95217098 186.64593636 114.74239922 187.36505508 C112.73429112 194.2505437 110.73584492 201.1387452 108.75024414 208.03076172 C108.13171265 210.16374842 107.51314441 212.29672448 106.89453125 214.4296875 C106.62505676 215.37497314 106.35558228 216.32025879 106.07794189 217.29418945 C105.83026062 218.1456958 105.58257935 218.99720215 105.32739258 219.87451172 C105.11730057 220.60564178 104.90720856 221.33677185 104.69075012 222.09005737 C104 224 104 224 102 227 C99.55758667 227.36076355 99.55758667 227.36076355 96.44873047 227.34057617 C95.28767792 227.34034958 94.12662537 227.34012299 92.9303894 227.33988953 C91.67203278 227.32440567 90.41367615 227.30892181 89.1171875 227.29296875 C87.19037643 227.28660149 87.19037643 227.28660149 85.22463989 227.28010559 C81.80827359 227.2686468 78.39228944 227.23917143 74.97607422 227.20599365 C71.49061249 227.17531462 68.00508906 227.16160494 64.51953125 227.14648438 C57.67953043 227.11430221 50.83978356 227.06309376 44 227 C42.62120511 222.3608171 41.48792295 217.77087406 40.56724548 213.01390076 C40.4371295 212.34617191 40.30701351 211.67844306 40.17295462 210.99048001 C39.74119515 208.77082265 39.31383562 206.55034204 38.88647461 204.32983398 C38.57593003 202.72852999 38.2651113 201.12727913 37.95404053 199.52607727 C37.10991842 195.1769644 36.26960424 190.82712344 35.42993617 186.47714877 C34.54090347 181.87511671 33.64825971 177.27378517 32.7559967 172.67237854 C31.05729022 163.9093083 29.36166725 155.14564447 27.66721302 146.38175112 C25.21843118 133.7171377 22.76492842 121.05343885 20.31160927 108.38970375 C19.94354564 106.48975307 19.57548519 104.58980178 19.20742798 102.68984985 C18.93602507 101.28886659 18.93602507 101.28886659 18.65913928 99.85958064 C17.57546438 94.26507486 16.49265381 88.6704026 15.41055787 83.07559121 C12.27252763 66.85112411 9.13380021 50.62698413 5.93408203 34.41455078 C5.71263928 33.29104375 5.49119654 32.16753672 5.2630434 31.00998402 C4.29295884 26.09028655 3.3192263 21.17137816 2.33738708 16.25401306 C2.01590211 14.6290825 1.69452757 13.00413008 1.37329102 11.37915039 C1.23027872 10.67160425 1.08726643 9.96405811 0.93992043 9.23507118 C0.31423811 6.052339 0 3.2674851 0 0 Z " fill="#FCFCFD" transform="translate(100,139)"/>
</svg>
